<?xml version="1.0" encoding="utf-8"?>
<!-- Generator: Adobe Illustrator 18.1.0, SVG Export Plug-In . SVG Version: 6.00 Build 0)  -->
<svg version="1.1" id="Layer_1" xmlns="http://www.w3.org/2000/svg" xmlns:xlink="http://www.w3.org/1999/xlink" x="0px" y="0px"
	 viewBox="0 0 200 200" enable-background="new 0 0 200 200" xml:space="preserve">
<path fill="#004C77" d="M194.2,200H5c-2.8,0-5-2.3-5-5V5.3c0-2.8,2.3-5,5-5h189.2c2.8,0,5,2.3,5,5V195
	C199.3,197.7,197,200,194.2,200z"/>
<path fill="#FFFFFF" d="M94.1,120.6c0,0,0-23,0-28.9c0-5-2.3-7.8-6.8-7.8c-4.1,0-6.9,3-8.8,5c0,11,0,31.6,0,31.6h-12
	c0,0,0-23,0-28.9c0-5-2.1-7.8-6.8-7.8c-4.1,0-7,3-8.8,5v31.6h-12V74.2h12v5.9c2-2.4,6.7-6.5,13.8-6.5c6.4,0,10.7,2.6,12.7,8.1
	c2.6-3.9,7.7-8.1,14.9-8.1c8.7,0,13.8,5.1,13.8,15.1c0,11,0,31.6,0,31.6h-12V120.6z M127.4,101.3c1.3,5.9,6.1,10,12.9,10
	c3.6,0,9-1.4,12.2-4.6l6,6.8c-5.4,5.7-13.6,7.2-19.1,7.2c-13.4,0-24-9.6-24-23.4c0-12.8,9.7-23.4,23.3-23.4c13.2,0,23,10.1,23,23.4
	v3.9h-34.4V101.3z M138.9,82.8c-7,0-10.9,5.1-11.7,10.7h23.6C150.1,88.3,146.2,82.8,138.9,82.8z"/>
</svg>
